<svg xmlns="http://www.w3.org/2000/svg" viewBox="0 0 1220 439.3"><g id="Layer_2" data-name="Layer 2"><g id="Layer_1-2" data-name="Layer 1"><path d="M662.77,159.92a61.94,61.94,0,0,1-3.94,22.58,50.21,50.21,0,0,1-11.09,17.42,49.3,49.3,0,0,1-17.23,11.21,60,60,0,0,1-22.23,4H567.05V104.67h41.23a60,60,0,0,1,22.23,4,49.11,49.11,0,0,1,17.23,11.25,50.52,50.52,0,0,1,11.09,17.45A62,62,0,0,1,662.77,159.92Zm-15.34,0a55.63,55.63,0,0,0-2.77-18.18,38.28,38.28,0,0,0-7.87-13.57,33.58,33.58,0,0,0-12.33-8.47,42.82,42.82,0,0,0-16.18-2.93H582V203h26.28a42.63,42.63,0,0,0,16.18-2.93,33.63,33.63,0,0,0,12.33-8.44,37.8,37.8,0,0,0,7.87-13.52A55.65,55.65,0,0,0,647.43,159.92Z" fill="#fff"/><path d="M792.46,202.92l-.08,12.18h-68V104.67h68v12.18H739.29v36.68h43v11.71h-43v37.68Z" fill="#fff"/><path d="M909.9,121.93a5.72,5.72,0,0,1-1.5,1.74,3.31,3.31,0,0,1-2,.57,5.45,5.45,0,0,1-3.09-1.31c-1.18-.87-2.65-1.83-4.43-2.89a36.25,36.25,0,0,0-6.39-2.89,27.66,27.66,0,0,0-9.06-1.31,26.37,26.37,0,0,0-8.82,1.35,19,19,0,0,0-6.4,3.66,15,15,0,0,0-3.89,5.44,17.27,17.27,0,0,0-1.31,6.74,12.51,12.51,0,0,0,2.27,7.67,19.59,19.59,0,0,0,6,5.2,46.27,46.27,0,0,0,8.47,3.74q4.74,1.58,9.71,3.27t9.71,3.82a34,34,0,0,1,8.48,5.35,24.58,24.58,0,0,1,6,7.94A26.5,26.5,0,0,1,916,181.58a37.36,37.36,0,0,1-2.46,13.6,31.49,31.49,0,0,1-7.21,11.06,33.8,33.8,0,0,1-11.64,7.4A42.92,42.92,0,0,1,879,216.33a47.69,47.69,0,0,1-19.57-3.89,45.8,45.8,0,0,1-15-10.52l4.32-7.09a5.64,5.64,0,0,1,1.5-1.42,3.47,3.47,0,0,1,2-.58,4.39,4.39,0,0,1,2.28.81c.85.54,1.81,1.22,2.89,2s2.31,1.72,3.7,2.7a30.23,30.23,0,0,0,4.74,2.7,32,32,0,0,0,6.05,2,32.8,32.8,0,0,0,7.62.81,28.34,28.34,0,0,0,9.48-1.47,20,20,0,0,0,7-4.12,17.83,17.83,0,0,0,4.44-6.36,21.34,21.34,0,0,0,1.54-8.24,13.81,13.81,0,0,0-2.28-8.21,18.79,18.79,0,0,0-6-5.36,41.78,41.78,0,0,0-8.47-3.66q-4.79-1.5-9.71-3.08a100.62,100.62,0,0,1-9.71-3.66,31.28,31.28,0,0,1-8.48-5.4,24.48,24.48,0,0,1-6-8.28,31.68,31.68,0,0,1,0-23.62,28.89,28.89,0,0,1,6.62-9.71A32.53,32.53,0,0,1,868.72,106a39,39,0,0,1,14.6-2.54,46.3,46.3,0,0,1,16.84,2.93,39.77,39.77,0,0,1,13.37,8.47Z" fill="#fff"/><path d="M1019.72,203.23a30.86,30.86,0,0,0,12.25-2.31,25.76,25.76,0,0,0,9.13-6.47,28.41,28.41,0,0,0,5.7-9.94,39.37,39.37,0,0,0,2-12.72V104.67h14.87v67.12a50.4,50.4,0,0,1-3,17.73,41.17,41.17,0,0,1-8.71,14.14,39.9,39.9,0,0,1-13.83,9.36,51.3,51.3,0,0,1-36.68,0,40.21,40.21,0,0,1-13.88-9.36,40.94,40.94,0,0,1-8.74-14.14,50.4,50.4,0,0,1-3-17.73V104.67h14.88v67a39.28,39.28,0,0,0,2,12.72,28.32,28.32,0,0,0,5.7,9.94,25.87,25.87,0,0,0,9.17,6.51A30.66,30.66,0,0,0,1019.72,203.23Z" fill="#fff"/><path d="M1220,104.67V215.1h-7.48a6.4,6.4,0,0,1-3-.61,7.55,7.55,0,0,1-2.35-2.09l-63.89-83.22c.1,1.28.18,2.54.23,3.77s.08,2.39.08,3.47V215.1h-13.1V104.67h7.71a10.13,10.13,0,0,1,1.69.12,4.19,4.19,0,0,1,1.24.38,5,5,0,0,1,1.07.77,12.64,12.64,0,0,1,1.16,1.27l63.88,83.15c-.1-1.33-.19-2.63-.27-3.89s-.11-2.45-.11-3.58V104.67Z" fill="#fff"/><path d="M597.31,288.62a1.05,1.05,0,0,1-1,.63,2.18,2.18,0,0,1-1.26-.69A15.83,15.83,0,0,0,593,287a16.25,16.25,0,0,0-3.28-1.55,14.23,14.23,0,0,0-4.86-.72,14.43,14.43,0,0,0-5.08.83,10.63,10.63,0,0,0-3.67,2.25,9.51,9.51,0,0,0-2.25,3.3,10.31,10.31,0,0,0-.77,3.93,8.08,8.08,0,0,0,1.14,4.47,10.53,10.53,0,0,0,3,3,20.09,20.09,0,0,0,4.26,2.08q2.38.84,4.89,1.67t4.9,1.81a18,18,0,0,1,4.25,2.5,11.43,11.43,0,0,1,3,3.69,11.77,11.77,0,0,1,1.14,5.46,17.24,17.24,0,0,1-1.14,6.28,14.65,14.65,0,0,1-3.32,5.12,15.59,15.59,0,0,1-5.32,3.43,19.27,19.27,0,0,1-7.2,1.26,20.48,20.48,0,0,1-9-1.86,21.28,21.28,0,0,1-6.64-5.08l1.05-1.65a1.31,1.31,0,0,1,1-.57,1.53,1.53,0,0,1,.87.46c.35.29.77.66,1.27,1.1s1.1.91,1.8,1.43a15.08,15.08,0,0,0,2.44,1.42,16.57,16.57,0,0,0,7.27,1.56,15.49,15.49,0,0,0,5.63-1,12.22,12.22,0,0,0,4.18-2.61,10.9,10.9,0,0,0,2.6-3.91,13.12,13.12,0,0,0,.9-4.86,8.59,8.59,0,0,0-1.14-4.63,10,10,0,0,0-3-3,19.55,19.55,0,0,0-4.26-2q-2.37-.82-4.89-1.61t-4.89-1.77a16.62,16.62,0,0,1-4.26-2.49,11.42,11.42,0,0,1-3-3.79,12.57,12.57,0,0,1-1.14-5.68,13.57,13.57,0,0,1,1-5.14,12.81,12.81,0,0,1,3-4.36,14.28,14.28,0,0,1,4.81-3,17.67,17.67,0,0,1,6.55-1.14,19.68,19.68,0,0,1,7.4,1.31,17.64,17.64,0,0,1,6,4Z" fill="#fff"/><path d="M683.59,332.49a17,17,0,0,0,6.85-1.33,14.64,14.64,0,0,0,5.11-3.7,16.24,16.24,0,0,0,3.21-5.57,21,21,0,0,0,1.11-6.91V282.17h3.82V315a23.64,23.64,0,0,1-1.39,8.19,19.47,19.47,0,0,1-4,6.64,18.46,18.46,0,0,1-6.34,4.44,22.61,22.61,0,0,1-16.76,0,18.33,18.33,0,0,1-6.33-4.44,19.65,19.65,0,0,1-4-6.64,23.87,23.87,0,0,1-1.39-8.19V282.17h3.87v32.77a21,21,0,0,0,1.1,6.92,16.41,16.41,0,0,0,3.19,5.56,14.69,14.69,0,0,0,5.1,3.72A16.57,16.57,0,0,0,683.59,332.49Z" fill="#fff"/><path d="M775.05,335.22h-3.87V282.17h3.87Z" fill="#fff"/><path d="M877.72,285.43H859.08v49.79h-3.86V285.43H836.47v-3.26h41.25Z" fill="#fff"/><path d="M971,332l-.08,3.18H939.14V282.17h31.79v3.18H943V306.8h23.25v3.11H943V332Z" fill="#fff"/><path d="M1060.89,288.62a1.07,1.07,0,0,1-1,.63,2.16,2.16,0,0,1-1.25-.69,17.31,17.31,0,0,0-2.08-1.54,16.35,16.35,0,0,0-3.29-1.55,16.31,16.31,0,0,0-9.93.11,10.58,10.58,0,0,0-3.68,2.25,9.79,9.79,0,0,0-2.25,3.3,10.31,10.31,0,0,0-.77,3.93,8.08,8.08,0,0,0,1.15,4.47,10.4,10.4,0,0,0,3,3,20.24,20.24,0,0,0,4.25,2.08q2.39.84,4.9,1.67t4.89,1.81a17.62,17.62,0,0,1,4.25,2.5,11.3,11.3,0,0,1,3,3.69,11.64,11.64,0,0,1,1.15,5.46,17,17,0,0,1-1.15,6.28,14.77,14.77,0,0,1-3.31,5.12,15.64,15.64,0,0,1-5.33,3.43,19.27,19.27,0,0,1-7.2,1.26,20.4,20.4,0,0,1-9-1.86,21.28,21.28,0,0,1-6.64-5.08l1-1.65a1.31,1.31,0,0,1,1-.57,1.54,1.54,0,0,1,.86.46c.35.29.77.66,1.27,1.1s1.1.91,1.8,1.43a15.53,15.53,0,0,0,2.44,1.42,17.21,17.21,0,0,0,3.19,1.11,16.9,16.9,0,0,0,4.09.45,15.44,15.44,0,0,0,5.62-1,12.22,12.22,0,0,0,4.18-2.61,10.92,10.92,0,0,0,2.61-3.91,13.12,13.12,0,0,0,.9-4.86,8.59,8.59,0,0,0-1.14-4.63,10.18,10.18,0,0,0-3-3,19.55,19.55,0,0,0-4.26-2q-2.38-.82-4.89-1.61t-4.9-1.77a16.73,16.73,0,0,1-4.25-2.49,11.3,11.3,0,0,1-3-3.79,12.57,12.57,0,0,1-1.14-5.68,13.38,13.38,0,0,1,1-5.14,12.64,12.64,0,0,1,3-4.36,14.43,14.43,0,0,1,4.82-3,17.58,17.58,0,0,1,6.54-1.14,19.73,19.73,0,0,1,7.41,1.31,17.74,17.74,0,0,1,6,4Z" fill="#fff"/><path d="M440.59,110.75a111.44,111.44,0,0,0-222.81-3.19C97.47,108.92,0,207.2,0,327.83v2.63H217.75a111.43,111.43,0,0,0,222.8,0h.06V110.75ZM329.15,434.05A106.32,106.32,0,0,1,223,330.46H435.3A106.33,106.33,0,0,1,329.15,434.05ZM222.93,325.21V112.81c116.12,1.41,211,96.08,212.42,212.4ZM111.47,221.62A106.33,106.33,0,0,1,217.62,325.21H5.32A106.31,106.31,0,0,1,111.47,221.62ZM217.68,294A111.44,111.44,0,0,0,10.51,280.65C32,185.62,116.83,114,217.68,112.81ZM435.36,280C413.64,182.29,326.87,108.83,223,107.56a106.2,106.2,0,0,1,212.33,3.9V280Z" fill="#fff"/></g></g></svg>