<svg xmlns="http://www.w3.org/2000/svg" viewBox="0 0 698 750.96"><g id="Layer_2" data-name="Layer 2"><g id="Layer_1-2" data-name="Layer 1"><path d="M86.25,499.65a52.44,52.44,0,0,0-18.41-12,64.41,64.41,0,0,0-23.77-4.24H0v118H44.07a64.2,64.2,0,0,0,23.77-4.24,52.77,52.77,0,0,0,18.41-12,53.46,53.46,0,0,0,11.86-18.62,71.29,71.29,0,0,0,0-48.27A53.91,53.91,0,0,0,86.25,499.65ZM83,561.89a40.58,40.58,0,0,1-8.41,14.46,36.08,36.08,0,0,1-13.18,9,45.72,45.72,0,0,1-17.3,3.13H16V496.31H44.07a45.91,45.91,0,0,1,17.3,3.13,35.72,35.72,0,0,1,13.18,9.07A40.89,40.89,0,0,1,83,523a65.35,65.35,0,0,1,0,38.89Z" fill="#fff"/><polygon points="240.96 588.41 184.12 588.41 184.12 548.13 230.09 548.13 230.09 535.61 184.12 535.61 184.12 496.4 240.88 496.4 240.88 483.38 168.14 483.38 168.14 601.43 240.88 601.43 240.96 588.41" fill="#fff"/><path d="M373,565.6a28.25,28.25,0,0,0-2.43-12.36,26.22,26.22,0,0,0-6.43-8.49A36.55,36.55,0,0,0,355.1,539Q350,536.77,344.72,535t-10.38-3.5a49.16,49.16,0,0,1-9.06-4,20.77,20.77,0,0,1-6.43-5.56,13.31,13.31,0,0,1-2.43-8.19,18.5,18.5,0,0,1,1.4-7.21,16,16,0,0,1,4.16-5.81,20.14,20.14,0,0,1,6.84-3.91,28.28,28.28,0,0,1,9.43-1.44,29.24,29.24,0,0,1,9.68,1.4,37.56,37.56,0,0,1,6.84,3.09q2.84,1.68,4.73,3.08a5.87,5.87,0,0,0,3.3,1.4,3.52,3.52,0,0,0,2.1-.61,6,6,0,0,0,1.61-1.86l3.87-7.57a42.49,42.49,0,0,0-14.29-9.07,49.79,49.79,0,0,0-18-3.13,41.82,41.82,0,0,0-15.61,2.72A34.71,34.71,0,0,0,311,492a30.94,30.94,0,0,0-7.08,10.38,34,34,0,0,0,0,25.25,26.34,26.34,0,0,0,6.39,8.85,33.09,33.09,0,0,0,9.06,5.77q5.1,2.22,10.38,3.92t10.38,3.29a44.93,44.93,0,0,1,9.06,3.91,20.12,20.12,0,0,1,6.38,5.73A14.78,14.78,0,0,1,358,567.9a22.91,22.91,0,0,1-1.64,8.82,19.11,19.11,0,0,1-4.74,6.79,21.37,21.37,0,0,1-7.54,4.41A30.48,30.48,0,0,1,334,589.49a35.09,35.09,0,0,1-8.16-.87,34.41,34.41,0,0,1-6.46-2.18,31.94,31.94,0,0,1-5.07-2.89q-2.22-1.56-3.95-2.88c-1.16-.88-2.19-1.6-3.09-2.18a4.67,4.67,0,0,0-2.44-.87,3.74,3.74,0,0,0-2.09.62,5.87,5.87,0,0,0-1.61,1.53l-4.61,7.57a48.86,48.86,0,0,0,16.06,11.25,51.14,51.14,0,0,0,20.92,4.16,45.82,45.82,0,0,0,16.77-2.88A36.23,36.23,0,0,0,362.68,592a33.52,33.52,0,0,0,7.7-11.82A39.81,39.81,0,0,0,373,565.6Z" fill="#fff"/><path d="M515,555.13a42,42,0,0,1-2.1,13.6,30.21,30.21,0,0,1-6.09,10.62,27.36,27.36,0,0,1-9.77,6.92,35.78,35.78,0,0,1-26.23,0,27.81,27.81,0,0,1-9.81-7,30.34,30.34,0,0,1-6.09-10.63,42,42,0,0,1-2.1-13.59V483.38h-15.9v71.75a53.8,53.8,0,0,0,3.25,19,43.84,43.84,0,0,0,9.35,15.12,43.21,43.21,0,0,0,14.83,10,54.9,54.9,0,0,0,39.21,0,42.76,42.76,0,0,0,14.79-10,44,44,0,0,0,9.31-15.12,53.8,53.8,0,0,0,3.25-19V483.38H515Z" fill="#fff"/><path d="M684,483.38V567c0,1.2,0,2.48.12,3.83s.18,2.73.29,4.16l-68.3-88.89a13.45,13.45,0,0,0-1.23-1.36,5,5,0,0,0-1.15-.82,4.75,4.75,0,0,0-1.32-.42,11.64,11.64,0,0,0-1.81-.12h-8.24v118h14V517.32c0-1.15,0-2.39-.08-3.71s-.14-2.66-.25-4l68.3,89a8,8,0,0,0,2.51,2.22,6.86,6.86,0,0,0,3.17.66h8v-118Z" fill="#fff"/><path d="M139.6,726.91a17.07,17.07,0,0,0-4-2.38c-1.52-.63-3.07-1.2-4.66-1.73s-3.15-1-4.66-1.59a18.16,18.16,0,0,1-4-2,9.63,9.63,0,0,1-2.87-2.85,7.62,7.62,0,0,1-1.09-4.25,9.75,9.75,0,0,1,.73-3.75,9.19,9.19,0,0,1,2.14-3.14,10.28,10.28,0,0,1,3.5-2.14,13.74,13.74,0,0,1,4.83-.78,13.51,13.51,0,0,1,4.63.68,15.18,15.18,0,0,1,3.12,1.48,15.47,15.47,0,0,1,2,1.46,2.07,2.07,0,0,0,1.2.66,1,1,0,0,0,.92-.61l.86-1.64a17,17,0,0,0-5.69-3.82,18.92,18.92,0,0,0-7.05-1.25,16.84,16.84,0,0,0-6.23,1.09,14,14,0,0,0-4.59,2.89,12.2,12.2,0,0,0-2.81,4.16,12.66,12.66,0,0,0-1,4.89,12.06,12.06,0,0,0,1.09,5.41,10.84,10.84,0,0,0,2.87,3.6,15.62,15.62,0,0,0,4,2.37q2.28.93,4.66,1.68t4.66,1.54a18.53,18.53,0,0,1,4,1.94,9.42,9.42,0,0,1,2.87,2.89,8.14,8.14,0,0,1,1.09,4.41,12.43,12.43,0,0,1-.85,4.62,10.49,10.49,0,0,1-2.49,3.73,11.65,11.65,0,0,1-4,2.48,14.77,14.77,0,0,1-5.36.91,16,16,0,0,1-6.92-1.48,13.38,13.38,0,0,1-2.32-1.36c-.67-.48-1.24-.93-1.72-1.35s-.88-.77-1.21-1.05a1.38,1.38,0,0,0-.82-.43,1.28,1.28,0,0,0-1,.53l-1,1.57a20.32,20.32,0,0,0,6.32,4.84,19.32,19.32,0,0,0,8.6,1.77,18.32,18.32,0,0,0,6.85-1.2,15,15,0,0,0,5.07-3.26,14,14,0,0,0,3.16-4.88,16.28,16.28,0,0,0,1.09-6,11.11,11.11,0,0,0-1.09-5.19A10.92,10.92,0,0,0,139.6,726.91Z" fill="#fff"/><path d="M238.88,731.08a20.14,20.14,0,0,1-1,6.59,15.53,15.53,0,0,1-3.05,5.3,13.9,13.9,0,0,1-4.87,3.51,17.28,17.28,0,0,1-13,0,14,14,0,0,1-4.85-3.54,15.51,15.51,0,0,1-3-5.3,20.08,20.08,0,0,1-1.05-6.58v-31.2h-3.68v31.23a22.57,22.57,0,0,0,1.32,7.8,18.79,18.79,0,0,0,3.8,6.32,17.79,17.79,0,0,0,6,4.23,21.55,21.55,0,0,0,16,0,17.65,17.65,0,0,0,6-4.23,18.79,18.79,0,0,0,3.8-6.32,22.57,22.57,0,0,0,1.32-7.8V699.85h-3.64Z" fill="#fff"/><rect x="306.76" y="699.85" width="3.68" height="50.5" fill="#fff"/><polygon points="368.9 702.96 386.74 702.96 386.74 750.35 390.42 750.35 390.42 702.96 408.16 702.96 408.16 699.86 368.9 699.86 368.9 702.96" fill="#fff"/><polygon points="470.29 726.26 492.42 726.26 492.42 723.3 470.29 723.3 470.29 702.89 496.88 702.89 496.88 699.86 466.61 699.86 466.61 750.35 496.88 750.35 496.95 747.32 470.29 747.32 470.29 726.26" fill="#fff"/><path d="M580.82,726.91a16.87,16.87,0,0,0-4.05-2.38c-1.51-.63-3.07-1.2-4.66-1.73s-3.15-1-4.66-1.59a18.16,18.16,0,0,1-4.05-2,9.63,9.63,0,0,1-2.87-2.85,7.62,7.62,0,0,1-1.09-4.25,9.75,9.75,0,0,1,.73-3.75,9.19,9.19,0,0,1,2.14-3.14,10.28,10.28,0,0,1,3.5-2.14,13.76,13.76,0,0,1,4.84-.78,13.49,13.49,0,0,1,4.62.68,15.18,15.18,0,0,1,3.12,1.48,15.47,15.47,0,0,1,2,1.46,2.07,2.07,0,0,0,1.2.66,1,1,0,0,0,.93-.61l.85-1.64a17,17,0,0,0-5.69-3.82,18.89,18.89,0,0,0-7-1.25,16.84,16.84,0,0,0-6.23,1.09,13.84,13.84,0,0,0-4.58,2.89,12.09,12.09,0,0,0-2.82,4.16,12.85,12.85,0,0,0-1,4.89,12.06,12.06,0,0,0,1.09,5.41,10.87,10.87,0,0,0,2.88,3.6,15.46,15.46,0,0,0,4,2.37q2.26.93,4.65,1.68t4.66,1.54a18.53,18.53,0,0,1,4,1.94,9.56,9.56,0,0,1,2.88,2.89,8.23,8.23,0,0,1,1.08,4.41,12.43,12.43,0,0,1-.85,4.62A10.47,10.47,0,0,1,578,744.5a11.79,11.79,0,0,1-4,2.48,14.73,14.73,0,0,1-5.36.91,16,16,0,0,1-6.92-1.48,13.77,13.77,0,0,1-2.32-1.36,20.51,20.51,0,0,1-1.71-1.35c-.48-.42-.88-.77-1.22-1.05a1.38,1.38,0,0,0-.82-.43,1.28,1.28,0,0,0-1,.53l-1,1.57a20.32,20.32,0,0,0,6.32,4.84,19.35,19.35,0,0,0,8.6,1.77,18.28,18.28,0,0,0,6.85-1.2,15,15,0,0,0,5.07-3.26,13.89,13.89,0,0,0,3.16-4.88,16.28,16.28,0,0,0,1.09-6,11.11,11.11,0,0,0-1.09-5.19A10.79,10.79,0,0,0,580.82,726.91Z" fill="#fff"/><path d="M432.75,0a86.19,86.19,0,0,0-86,82.8A170,170,0,0,0,179.26,248.17c-.08,1.47-.11,3-.11,4.43V255H346.71a86.08,86.08,0,0,0,172.09,0h.06V86.1A86.2,86.2,0,0,0,432.75,0ZM514.1,255C512.85,298.56,476.41,334,432.75,334S352.66,298.56,351.41,255ZM408,93.36A168.89,168.89,0,0,0,351.44,82.8a81.39,81.39,0,0,1,162.72,3.3v127A170.49,170.49,0,0,0,408,93.36ZM514.14,250.25H351.35V87.5C439.94,88.75,512.89,161.68,514.14,250.25ZM265.25,166.5a86.16,86.16,0,0,0-76.68,47,164.68,164.68,0,0,1,158.08-126V224.58a86.23,86.23,0,0,0-81.4-58.08Zm0,4.69c43.66,0,80.09,35.44,81.34,79.06H183.91C185.15,206.63,221.59,171.19,265.25,171.19Zm-7.4-61.52a170.69,170.69,0,0,0-52.38,52.76A168.78,168.78,0,0,1,257.85,109.67Z" fill="#fff"/></g></g></svg>